<svg width="83" height="83" viewBox="0 0 83 83" fill="none" xmlns="http://www.w3.org/2000/svg">
<path d="M39.9956 47.9775L30.7377 38.7195C30.6109 38.5927 30.5037 38.444 30.416 38.2734C30.3307 38.1051 30.2881 37.9241 30.2881 37.7304C30.2881 37.3431 30.4149 37.0099 30.6685 36.731C30.9267 36.452 31.2656 36.3125 31.6853 36.3125H51.3182C51.7355 36.3125 52.0721 36.4554 52.328 36.7413C52.584 37.0272 52.7119 37.3592 52.7119 37.7373C52.7119 37.8342 52.5621 38.1616 52.2623 38.7195L43.0044 47.9775C42.79 48.1919 42.5594 48.3567 42.3127 48.472C42.066 48.5873 41.7951 48.6449 41.5 48.6449C41.2049 48.6449 40.934 48.5873 40.6873 48.472C40.4406 48.3567 40.21 48.1919 39.9956 47.9775Z" fill="#042304"/>
</svg>
