<svg width="1440" height="374" viewBox="0 0 1440 374" fill="none" xmlns="http://www.w3.org/2000/svg">
<path d="M320.124 99.6817V381.539H399.027V99.6817H320.124ZM384.619 308.459H334.942C332.549 308.459 330.622 306.525 330.622 304.139C330.622 301.753 332.549 299.819 334.942 299.819H384.619C387.013 299.819 388.94 301.753 388.94 304.139C388.947 306.532 387.013 308.459 384.619 308.459ZM384.619 282.545H334.942C332.549 282.545 330.622 280.611 330.622 278.225C330.622 275.832 332.549 273.898 334.942 273.898H384.619C387.013 273.898 388.94 275.832 388.94 278.225C388.947 280.618 387.013 282.545 384.619 282.545ZM384.619 256.639H334.942C332.549 256.639 330.622 254.698 330.622 252.305C330.622 249.925 332.549 247.991 334.942 247.991H384.619C387.013 247.991 388.94 249.925 388.94 252.305C388.947 254.691 387.013 256.639 384.619 256.639ZM384.619 230.704H334.942C332.549 230.704 330.622 228.784 330.622 226.391C330.622 224.012 332.549 222.071 334.942 222.071H384.619C387.013 222.071 388.94 224.012 388.94 226.391C388.947 228.784 387.013 230.704 384.619 230.704ZM384.619 204.797H334.942C332.549 204.797 330.622 202.863 330.622 200.477C330.622 198.084 332.549 196.15 334.942 196.15H384.619C387.013 196.15 388.94 198.084 388.94 200.477C388.947 202.863 387.013 204.797 384.619 204.797ZM384.619 178.877H334.942C332.549 178.877 330.622 176.943 330.622 174.557C330.622 172.177 332.549 170.236 334.942 170.236H384.619C387.013 170.236 388.94 172.17 388.94 174.557C388.947 176.943 387.013 178.877 384.619 178.877ZM384.619 152.963H334.942C332.549 152.963 330.622 151.029 330.622 148.643C330.622 146.257 332.549 144.323 334.942 144.323H384.619C387.013 144.323 388.94 146.257 388.94 148.643C388.94 151.029 387.013 152.963 384.619 152.963ZM384.619 127.042H334.942C332.549 127.042 330.622 125.108 330.622 122.722C330.622 120.329 332.549 118.402 334.942 118.402H384.619C387.013 118.402 388.94 120.336 388.94 122.722C388.947 125.115 387.013 127.042 384.619 127.042Z" fill="#042304"/>
<path d="M527.468 49.3013V381.553H542.084V308.278H562.808V381.532H571.024V308.278H591.748V381.532H606.371V49.3013H527.468ZM559.357 263.108H542.084C539.691 263.108 537.757 261.181 537.757 258.781C537.757 256.402 539.691 254.468 542.084 254.468H559.357C561.751 254.468 563.671 256.402 563.671 258.781C563.671 261.181 561.751 263.108 559.357 263.108ZM559.357 237.188H542.084C539.691 237.188 537.757 235.254 537.757 232.874C537.757 230.481 539.691 228.54 542.084 228.54H559.357C561.751 228.54 563.671 230.481 563.671 232.874C563.671 235.268 561.751 237.188 559.357 237.188ZM559.357 211.274H542.084C539.691 211.274 537.757 209.34 537.757 206.947C537.757 204.561 539.691 202.627 542.084 202.627H559.357C561.751 202.627 563.671 204.561 563.671 206.947C563.671 209.347 561.751 211.274 559.357 211.274ZM559.357 185.353H542.084C539.691 185.353 537.757 183.419 537.757 181.033C537.757 178.647 539.691 176.713 542.084 176.713H559.357C561.751 176.713 563.671 178.647 563.671 181.033C563.671 183.419 561.751 185.353 559.357 185.353ZM559.357 159.44H542.084C539.691 159.44 537.757 157.506 537.757 155.12C537.757 152.726 539.691 150.799 542.084 150.799H559.357C561.751 150.799 563.671 152.733 563.671 155.12C563.671 157.506 561.751 159.44 559.357 159.44ZM559.357 133.519H542.084C539.691 133.519 537.757 131.585 537.757 129.199C537.757 126.813 539.691 124.879 542.084 124.879H559.357C561.751 124.879 563.671 126.813 563.671 129.199C563.671 131.592 561.751 133.519 559.357 133.519ZM559.357 107.605H542.084C539.691 107.605 537.757 105.671 537.757 103.285C537.757 100.892 539.691 98.9651 542.084 98.9651H559.357C561.751 98.9651 563.671 100.899 563.671 103.285C563.671 105.671 561.751 107.605 559.357 107.605ZM559.357 81.6847H542.084C539.691 81.6847 537.757 79.7508 537.757 77.3716C537.757 74.9785 539.691 73.0515 542.084 73.0515H559.357C561.751 73.0515 563.671 74.9854 563.671 77.3716C563.671 79.7577 561.751 81.6847 559.357 81.6847ZM591.748 263.108H574.474C572.074 263.108 570.147 261.181 570.147 258.781C570.147 256.402 572.074 254.468 574.474 254.468H591.748C594.127 254.468 596.068 256.402 596.068 258.781C596.068 261.181 594.127 263.108 591.748 263.108ZM591.748 237.188H574.474C572.074 237.188 570.147 235.254 570.147 232.874C570.147 230.481 572.074 228.54 574.474 228.54H591.748C594.127 228.54 596.068 230.481 596.068 232.874C596.068 235.268 594.127 237.188 591.748 237.188ZM591.748 211.274H574.474C572.074 211.274 570.147 209.34 570.147 206.947C570.147 204.561 572.074 202.627 574.474 202.627H591.748C594.127 202.627 596.068 204.561 596.068 206.947C596.068 209.347 594.127 211.274 591.748 211.274ZM591.748 185.353H574.474C572.074 185.353 570.147 183.419 570.147 181.033C570.147 178.647 572.074 176.713 574.474 176.713H591.748C594.127 176.713 596.068 178.647 596.068 181.033C596.068 183.419 594.127 185.353 591.748 185.353ZM591.748 159.44H574.474C572.074 159.44 570.147 157.506 570.147 155.12C570.147 152.726 572.074 150.799 574.474 150.799H591.748C594.127 150.799 596.068 152.733 596.068 155.12C596.068 157.506 594.127 159.44 591.748 159.44ZM591.748 133.519H574.474C572.074 133.519 570.147 131.585 570.147 129.199C570.147 126.813 572.074 124.879 574.474 124.879H591.748C594.127 124.879 596.068 126.813 596.068 129.199C596.068 131.592 594.127 133.519 591.748 133.519ZM591.748 107.605H574.474C572.074 107.605 570.147 105.671 570.147 103.285C570.147 100.892 572.074 98.9651 574.474 98.9651H591.748C594.127 98.9651 596.068 100.899 596.068 103.285C596.068 105.671 594.127 107.605 591.748 107.605ZM591.748 81.6847H574.474C572.074 81.6847 570.147 79.7508 570.147 77.3716C570.147 74.9785 572.074 73.0515 574.474 73.0515H591.748C594.127 73.0515 596.068 74.9854 596.068 77.3716C596.068 79.7577 594.127 81.6847 591.748 81.6847Z" fill="#042304"/>
<path d="M481.804 154.939C481.804 148.281 471.655 142.883 459.133 142.883C446.597 142.883 436.447 148.281 436.447 154.939V166.995C436.447 166.995 430.401 166.995 422.951 166.995C415.5 166.995 409.462 179.642 409.462 195.253V223.511H508.81C508.81 223.511 508.81 210.856 508.81 195.253C508.81 179.642 502.765 166.995 495.307 166.995H481.825C481.804 166.995 481.804 161.596 481.804 154.939ZM478.57 206.773H439.696C439.696 206.773 439.696 200.769 439.696 193.36C439.696 185.959 448.398 179.948 459.14 179.948C469.867 179.948 478.57 185.945 478.57 193.36V206.773Z" fill="#042304"/>
<path d="M409.462 235.031V381.539H419.173V284.702C419.173 275.171 426.916 267.435 436.447 267.435C445.991 267.435 453.734 275.164 453.734 284.702V381.539H464.524V284.702C464.524 275.171 472.253 267.435 481.797 267.435C491.335 267.435 499.078 275.164 499.078 284.702V381.539H508.796V235.031H409.462Z" fill="#042304"/>
<path d="M265.987 243.303C244.199 243.303 226.536 262.649 226.536 286.518V381.539H305.445V286.518C305.438 262.649 287.775 243.303 265.987 243.303ZM251.253 364.252H237.75V342.115H251.253V364.252ZM251.253 330.428H237.75V308.278H251.253V330.428ZM251.253 296.591H237.75V274.455H251.253V296.591ZM272.735 364.252H259.239V342.115H272.735V364.252ZM272.735 330.428H259.239V308.278H272.735V330.428ZM272.735 296.591H259.239V274.455H272.735V296.591ZM294.21 364.252H280.714V342.115H294.21V364.252ZM294.21 330.428H280.714V308.278H294.21V330.428ZM294.21 296.591H280.714V274.455H294.21V296.591Z" fill="#042304"/>
<g clip-path="url(#clip0_41_5)">
<path d="M169.848 -105.787L51.125 -105.95C48.3385 -105.954 46.0764 -103.695 46.0764 -100.908V-47.9446L174.883 15.8275V-100.746C174.883 -103.528 172.63 -105.784 169.848 -105.787ZM105.424 -71.5064C105.424 -68.7219 103.167 -66.4648 100.383 -66.4648H80.2165C77.4325 -66.4648 75.1749 -68.7219 75.1749 -71.5064V-75.5397C75.1749 -78.3241 77.4325 -80.5813 80.2165 -80.5813H100.383C103.167 -80.5813 105.424 -78.3241 105.424 -75.5397V-71.5064ZM145.784 -71.5064C145.784 -68.7219 143.527 -66.4648 140.743 -66.4648H120.576C117.792 -66.4648 115.535 -68.7219 115.535 -71.5064V-75.5397C115.535 -78.3241 117.792 -80.5813 120.576 -80.5813H140.743C143.527 -80.5813 145.784 -78.3241 145.784 -75.5397V-71.5064Z" fill="#042304"/>
<path d="M-160.87 -37.2776V359.773H-191.758C-194.543 359.773 -196.8 362.031 -196.8 364.815V378.008C-196.8 380.793 -194.543 383.05 -191.758 383.05H221.652C224.436 383.05 226.693 380.793 226.693 378.008V364.815C226.693 362.031 224.436 359.773 221.652 359.773H190.763V39.3455C190.763 37.4286 189.676 35.6777 187.958 34.8272L33.1901 -41.7958C29.8394 -43.455 25.9115 -41.0169 25.9115 -37.2776V359.773H3.98164V39.3455C3.98164 37.4286 2.89467 35.6777 1.177 34.8272L-153.592 -41.7958C-156.942 -43.455 -160.87 -41.0169 -160.87 -37.2776ZM133.727 58.0623C133.727 55.2779 135.984 53.0208 138.768 53.0208H158.935C161.719 53.0208 163.976 55.2779 163.976 58.0623V62.0956C163.976 64.8801 161.719 67.1372 158.935 67.1372H138.768C135.984 67.1372 133.727 64.8801 133.727 62.0956V58.0623ZM133.727 106.462C133.727 103.677 135.984 101.42 138.768 101.42H158.935C161.719 101.42 163.976 103.677 163.976 106.462V110.495C163.976 113.279 161.719 115.536 158.935 115.536H138.768C135.984 115.536 133.727 113.279 133.727 110.495V106.462ZM133.727 154.861C133.727 152.076 135.984 149.819 138.768 149.819H158.935C161.719 149.819 163.976 152.076 163.976 154.861V158.894C163.976 161.678 161.719 163.936 158.935 163.936H138.768C135.984 163.936 133.727 161.678 133.727 158.894V154.861ZM133.727 203.26C133.727 200.476 135.984 198.218 138.768 198.218H158.935C161.719 198.218 163.976 200.476 163.976 203.26V207.293C163.976 210.077 161.719 212.335 158.935 212.335H138.768C135.984 212.335 133.727 210.077 133.727 207.293V203.26ZM133.727 251.659C133.727 248.875 135.984 246.618 138.768 246.618H158.935C161.719 246.618 163.976 248.875 163.976 251.659V255.692C163.976 258.476 161.719 260.734 158.935 260.734H138.768C135.984 260.734 133.727 258.476 133.727 255.692V251.659ZM133.727 300.058C133.727 297.274 135.984 295.017 138.768 295.017H158.935C161.719 295.017 163.976 297.274 163.976 300.058V304.092C163.976 306.876 161.719 309.133 158.935 309.133H138.768C135.984 309.133 133.727 306.876 133.727 304.092V300.058ZM93.2132 58.0623C93.2132 55.2779 95.4703 53.0208 98.2548 53.0208H118.421C121.205 53.0208 123.463 55.2779 123.463 58.0623V62.0956C123.463 64.8801 121.205 67.1372 118.421 67.1372H98.2548C95.4703 67.1372 93.2132 64.8801 93.2132 62.0956V58.0623ZM93.2132 106.462C93.2132 103.677 95.4703 101.42 98.2548 101.42H118.421C121.205 101.42 123.463 103.677 123.463 106.462V110.495C123.463 113.279 121.205 115.536 118.421 115.536H98.2548C95.4703 115.536 93.2132 113.279 93.2132 110.495V106.462ZM93.2132 154.861C93.2132 152.076 95.4703 149.819 98.2548 149.819H118.421C121.205 149.819 123.463 152.076 123.463 154.861V158.894C123.463 161.678 121.205 163.936 118.421 163.936H98.2548C95.4703 163.936 93.2132 161.678 93.2132 158.894V154.861ZM93.2132 203.26C93.2132 200.476 95.4703 198.218 98.2548 198.218H118.421C121.205 198.218 123.463 200.476 123.463 203.26V207.293C123.463 210.077 121.205 212.335 118.421 212.335H98.2548C95.4703 212.335 93.2132 210.077 93.2132 207.293V203.26ZM93.2132 251.659C93.2132 248.875 95.4703 246.618 98.2548 246.618H118.421C121.205 246.618 123.463 248.875 123.463 251.659V255.692C123.463 258.476 121.205 260.734 118.421 260.734H98.2548C95.4703 260.734 93.2132 258.476 93.2132 255.692V251.659ZM93.2132 300.058C93.2132 297.274 95.4703 295.017 98.2548 295.017H118.421C121.205 295.017 123.463 297.274 123.463 300.058V304.092C123.463 306.876 121.205 309.133 118.421 309.133H98.2548C95.4703 309.133 93.2132 306.876 93.2132 304.092V300.058ZM84.6576 337.732C84.6576 334.947 86.9147 332.69 89.6992 332.69H126.976C129.761 332.69 132.018 334.947 132.018 337.732V359.773H84.6576V337.732ZM52.698 58.0623C52.698 55.2779 54.9556 53.0208 57.7396 53.0208H77.9059C80.6904 53.0208 82.9475 55.2779 82.9475 58.0623V62.0956C82.9475 64.8801 80.6904 67.1372 77.9059 67.1372H57.7396C54.9556 67.1372 52.698 64.8801 52.698 62.0956V58.0623ZM52.698 106.462C52.698 103.677 54.9556 101.42 57.7396 101.42H77.9059C80.6904 101.42 82.9475 103.677 82.9475 106.462V110.495C82.9475 113.279 80.6904 115.536 77.9059 115.536H57.7396C54.9556 115.536 52.698 113.279 52.698 110.495V106.462ZM52.698 154.861C52.698 152.076 54.9556 149.819 57.7396 149.819H77.9059C80.6904 149.819 82.9475 152.076 82.9475 154.861V158.894C82.9475 161.678 80.6904 163.936 77.9059 163.936H57.7396C54.9556 163.936 52.698 161.678 52.698 158.894V154.861ZM52.698 203.26C52.698 200.476 54.9556 198.218 57.7396 198.218H77.9059C80.6904 198.218 82.9475 200.476 82.9475 203.26V207.293C82.9475 210.077 80.6904 212.335 77.9059 212.335H57.7396C54.9556 212.335 52.698 210.077 52.698 207.293V203.26ZM52.698 251.659C52.698 248.875 54.9556 246.618 57.7396 246.618H77.9059C80.6904 246.618 82.9475 248.875 82.9475 251.659V255.692C82.9475 258.476 80.6904 260.734 77.9059 260.734H57.7396C54.9556 260.734 52.698 258.476 52.698 255.692V251.659ZM52.698 300.058C52.698 297.274 54.9556 295.017 57.7396 295.017H77.9059C80.6904 295.017 82.9475 297.274 82.9475 300.058V304.092C82.9475 306.876 80.6904 309.133 77.9059 309.133H57.7396C54.9556 309.133 52.698 306.876 52.698 304.092V300.058ZM-53.0543 58.0623C-53.0543 55.2779 -50.7972 53.0208 -48.0127 53.0208H-27.8464C-25.0624 53.0208 -22.8048 55.2779 -22.8048 58.0623V62.0956C-22.8048 64.8801 -25.0624 67.1372 -27.8464 67.1372H-48.0127C-50.7972 67.1372 -53.0543 64.8801 -53.0543 62.0956V58.0623ZM-53.0543 106.462C-53.0543 103.677 -50.7972 101.42 -48.0127 101.42H-27.8464C-25.0624 101.42 -22.8048 103.677 -22.8048 106.462V110.495C-22.8048 113.279 -25.0624 115.536 -27.8464 115.536H-48.0127C-50.7972 115.536 -53.0543 113.279 -53.0543 110.495V106.462ZM-53.0543 154.861C-53.0543 152.076 -50.7972 149.819 -48.0127 149.819H-27.8464C-25.0624 149.819 -22.8048 152.076 -22.8048 154.861V158.894C-22.8048 161.678 -25.0624 163.936 -27.8464 163.936H-48.0127C-50.7972 163.936 -53.0543 161.678 -53.0543 158.894V154.861ZM-53.0543 203.26C-53.0543 200.476 -50.7972 198.218 -48.0127 198.218H-27.8464C-25.0624 198.218 -22.8048 200.476 -22.8048 203.26V207.293C-22.8048 210.077 -25.0624 212.335 -27.8464 212.335H-48.0127C-50.7972 212.335 -53.0543 210.077 -53.0543 207.293V203.26ZM-53.0543 251.659C-53.0543 248.875 -50.7972 246.618 -48.0127 246.618H-27.8464C-25.0624 246.618 -22.8048 248.875 -22.8048 251.659V255.692C-22.8048 258.476 -25.0624 260.734 -27.8464 260.734H-48.0127C-50.7972 260.734 -53.0543 258.476 -53.0543 255.692V251.659ZM-53.0543 300.058C-53.0543 297.274 -50.7972 295.017 -48.0127 295.017H-27.8464C-25.0624 295.017 -22.8048 297.274 -22.8048 300.058V304.092C-22.8048 306.876 -25.0624 309.133 -27.8464 309.133H-48.0127C-50.7972 309.133 -53.0543 306.876 -53.0543 304.092V300.058ZM-93.569 58.0623C-93.569 55.2779 -91.3119 53.0208 -88.5274 53.0208H-68.3611C-65.5766 53.0208 -63.3195 55.2779 -63.3195 58.0623V62.0956C-63.3195 64.8801 -65.5766 67.1372 -68.3611 67.1372H-88.5274C-91.3119 67.1372 -93.569 64.8801 -93.569 62.0956V58.0623ZM-93.569 106.462C-93.569 103.677 -91.3119 101.42 -88.5274 101.42H-68.3611C-65.5766 101.42 -63.3195 103.677 -63.3195 106.462V110.495C-63.3195 113.279 -65.5766 115.536 -68.3611 115.536H-88.5274C-91.3119 115.536 -93.569 113.279 -93.569 110.495V106.462ZM-93.569 154.861C-93.569 152.076 -91.3119 149.819 -88.5274 149.819H-68.3611C-65.5766 149.819 -63.3195 152.076 -63.3195 154.861V158.894C-63.3195 161.678 -65.5766 163.936 -68.3611 163.936H-88.5274C-91.3119 163.936 -93.569 161.678 -93.569 158.894V154.861ZM-93.569 203.26C-93.569 200.476 -91.3119 198.218 -88.5274 198.218H-68.3611C-65.5766 198.218 -63.3195 200.476 -63.3195 203.26V207.293C-63.3195 210.077 -65.5766 212.335 -68.3611 212.335H-88.5274C-91.3119 212.335 -93.569 210.077 -93.569 207.293V203.26ZM-93.569 251.659C-93.569 248.875 -91.3119 246.618 -88.5274 246.618H-68.3611C-65.5766 246.618 -63.3195 248.875 -63.3195 251.659V255.692C-63.3195 258.476 -65.5766 260.734 -68.3611 260.734H-88.5274C-91.3119 260.734 -93.569 258.476 -93.569 255.692V251.659ZM-93.569 300.058C-93.569 297.274 -91.3119 295.017 -88.5274 295.017H-68.3611C-65.5766 295.017 -63.3195 297.274 -63.3195 300.058V304.092C-63.3195 306.876 -65.5766 309.133 -68.3611 309.133H-88.5274C-91.3119 309.133 -93.569 306.876 -93.569 304.092V300.058ZM-102.125 337.732C-102.125 334.947 -99.8675 332.69 -97.083 332.69H-59.806C-57.0215 332.69 -54.7644 334.947 -54.7644 337.732V359.773H-102.125V337.732ZM-134.083 58.0623C-134.083 55.2779 -131.826 53.0208 -129.042 53.0208H-108.875C-106.091 53.0208 -103.834 55.2779 -103.834 58.0623V62.0956C-103.834 64.8801 -106.091 67.1372 -108.875 67.1372H-129.042C-131.826 67.1372 -134.083 64.8801 -134.083 62.0956V58.0623ZM-134.083 106.462C-134.083 103.677 -131.826 101.42 -129.042 101.42H-108.875C-106.091 101.42 -103.834 103.677 -103.834 106.462V110.495C-103.834 113.279 -106.091 115.536 -108.875 115.536H-129.042C-131.826 115.536 -134.083 113.279 -134.083 110.495V106.462ZM-134.083 154.861C-134.083 152.076 -131.826 149.819 -129.042 149.819H-108.875C-106.091 149.819 -103.834 152.076 -103.834 154.861V158.894C-103.834 161.678 -106.091 163.936 -108.875 163.936H-129.042C-131.826 163.936 -134.083 161.678 -134.083 158.894V154.861ZM-134.083 203.26C-134.083 200.476 -131.826 198.218 -129.042 198.218H-108.875C-106.091 198.218 -103.834 200.476 -103.834 203.26V207.293C-103.834 210.077 -106.091 212.335 -108.875 212.335H-129.042C-131.826 212.335 -134.083 210.077 -134.083 207.293V203.26ZM-134.083 251.659C-134.083 248.875 -131.826 246.618 -129.042 246.618H-108.875C-106.091 246.618 -103.834 248.875 -103.834 251.659V255.692C-103.834 258.476 -106.091 260.734 -108.875 260.734H-129.042C-131.826 260.734 -134.083 258.476 -134.083 255.692V251.659ZM-134.083 300.058C-134.083 297.274 -131.826 295.017 -129.042 295.017H-108.875C-106.091 295.017 -103.834 297.274 -103.834 300.058V304.092C-103.834 306.876 -106.091 309.133 -108.875 309.133H-129.042C-131.826 309.133 -134.083 306.876 -134.083 304.092V300.058Z" fill="#042304"/>
</g>
<path d="M1403.61 260.227H1400.96H1392.33V286.433V327.65C1395.12 326.51 1398.03 325.715 1400.96 325.076V285.069C1416.57 281.115 1429.12 269.55 1434.43 254.52C1428.34 251.863 1422.7 248.367 1417.67 244.154C1416.39 251.785 1412.58 260.227 1403.61 260.227Z" fill="#042304"/>
<path d="M1375.06 284.491V322.246C1378.14 324.145 1381.03 326.346 1383.69 328.824V286.26V251.595H1377.28C1376.44 251.595 1375.77 251.466 1375.06 251.362C1371.49 250.854 1369.37 249.256 1368.24 247.823C1365.96 244.897 1366.2 241.419 1366.43 239.968V225.7C1366.43 223.317 1368.36 221.384 1370.75 221.384C1373.13 221.384 1375.06 223.318 1375.06 225.7L1374.93 241.633C1374.87 241.97 1374.92 242.963 1375.05 242.963H1375.06C1375.17 242.963 1375.78 242.963 1377.29 242.963H1383.69V225.7C1383.69 225.104 1383.82 224.534 1384.03 224.016C1384.69 222.471 1386.21 221.383 1388.01 221.383C1390.39 221.383 1392.33 223.317 1392.33 225.699V251.594H1400.96H1403.61C1408.51 251.594 1409.59 240.736 1409.59 238.043V236.135C1406.13 232.113 1403.13 227.702 1400.66 222.964C1399.78 221.272 1398.93 219.555 1398.19 217.785C1394.75 209.576 1392.84 200.574 1392.84 191.139C1392.84 190.958 1392.86 190.776 1392.86 190.596C1391.63 190.501 1390.39 190.406 1389.14 190.406C1362.58 190.406 1341.05 211.941 1341.05 238.501C1341.04 260.167 1355.37 278.475 1375.06 284.491Z" fill="#042304"/>
<path d="M1161.76 344.689C1171.81 332.673 1186.8 325.976 1202.97 325.976C1212.15 325.976 1220.77 328.392 1228.32 332.605V1.27454H1133.38V325.561C1144.61 328.763 1154.57 335.539 1161.76 344.689ZM1159.27 277.491H1167.9V294.754H1159.27V277.491ZM1159.27 251.595H1167.9V268.858H1159.27V251.595ZM1159.27 225.7H1167.9V242.964H1159.27V225.7ZM1159.27 199.804H1167.9V217.068H1159.27V199.804ZM1159.27 173.91H1167.9V191.173H1159.27V173.91ZM1159.27 148.014H1167.9V165.277H1159.27V148.014ZM1159.27 122.119H1167.9V139.383H1159.27V122.119ZM1159.27 96.2243H1167.9V113.488H1159.27V96.2243ZM1159.27 70.3286H1167.9V87.5921H1159.27V70.3286ZM1202.43 87.5921H1193.8V70.3286H1202.43V87.5921ZM1202.43 113.487H1193.8V96.2234H1202.43V113.487ZM1202.43 139.383H1193.8V122.119H1202.43V139.383ZM1202.43 165.278H1193.8V148.015H1202.43V165.278ZM1202.43 191.173H1193.8V173.91H1202.43V191.173ZM1202.43 217.068H1193.8V199.804H1202.43V217.068ZM1202.43 242.964H1193.8V225.7H1202.43V242.964ZM1202.43 268.858H1193.8V251.595H1202.43V268.858ZM1202.43 294.754H1193.8V277.491H1202.43V294.754ZM1176.53 277.491H1185.16V294.754H1176.53V277.491ZM1176.53 251.595H1185.16V268.858H1176.53V251.595ZM1176.53 225.7H1185.16V242.964H1176.53V225.7ZM1176.53 199.804H1185.16V217.068H1176.53V199.804ZM1176.53 173.91H1185.16V191.173H1176.53V173.91ZM1176.53 148.014H1185.16V165.277H1176.53V148.014ZM1176.53 122.119H1185.16V139.383H1176.53V122.119ZM1176.53 96.2243H1185.16V113.488H1176.53V96.2243ZM1185.16 87.5921H1176.53V70.3286H1185.16V87.5921ZM1202.43 35.8016V61.6973H1193.8V35.8016H1202.43ZM1185.16 35.8016V61.6973H1176.53V35.8016H1185.16ZM1159.27 35.8016H1167.9V61.6973H1159.27V35.8016Z" fill="#042304"/>
<path d="M1067.91 368.53C1067.91 355.012 1073.32 344.481 1081.58 336.99C1084.2 334.616 1087.1 332.553 1090.21 330.809C1091.17 330.273 1092.14 329.765 1093.13 329.281H1090.21V312.018H1107.48V324.612C1111.3 323.887 1115.2 323.481 1119.09 323.481C1121 323.481 1122.88 323.618 1124.74 323.826V191.173H1021.16V381.072H1068.96L1068.88 380.459C1068.21 376.825 1067.91 371.568 1067.91 368.53ZM1038.43 286.122H1055.69V303.385H1038.43V286.122ZM1038.43 260.227H1055.69V277.491H1038.43V260.227ZM1038.43 234.331H1055.69V251.595H1038.43V234.331ZM1081.58 251.595H1064.32V234.331H1081.58V251.595ZM1081.58 277.491H1064.32V260.227H1081.58V277.491ZM1064.32 286.122H1081.58V303.385H1064.32V286.122ZM1107.48 303.385H1090.22V286.122H1107.48V303.385ZM1107.48 277.491H1090.22V260.227H1107.48V277.491ZM1107.48 251.595H1090.22V234.331H1107.48V251.595ZM1107.48 225.7H1090.22V208.437H1107.48V225.7ZM1081.58 225.7H1064.32V208.437H1081.58V225.7ZM1038.43 208.437H1055.69V225.7H1038.43V208.437ZM1038.43 312.018H1055.69V329.281H1038.43V312.018ZM1064.32 312.018H1081.58V329.281H1064.32V312.018Z" fill="#042304"/>
<path d="M1256.51 378.551L1256.6 381.072H1293.39L1293.3 380.459C1292.64 376.824 1292.34 371.567 1292.34 368.529C1292.34 346.933 1305.01 328.289 1323.27 319.492V139.382H1236.95V338.595C1248.36 348.271 1255.85 362.608 1256.51 378.551ZM1306.01 268.858H1297.38V260.227H1306.01V268.858ZM1271.48 260.227H1288.75V268.858H1271.48V260.227ZM1271.48 234.331H1288.75V251.595H1271.48V234.331ZM1271.48 208.436H1288.75V225.7H1271.48V208.436ZM1271.48 182.541H1288.75V199.804H1271.48V182.541ZM1306.01 199.804H1297.38V182.541H1306.01V199.804ZM1306.01 225.7H1297.38V208.436H1306.01V225.7ZM1306.01 251.595H1297.38V234.331H1306.01V251.595ZM1306.01 173.909H1297.38V156.646H1306.01V173.909ZM1288.75 173.909H1271.48V156.646H1288.75V173.909ZM1254.22 156.646H1262.85V173.909H1254.22V156.646ZM1254.22 182.541H1262.85V199.804H1254.22V182.541ZM1254.22 208.436H1262.85V225.7H1254.22V208.436ZM1254.22 234.331H1262.85V251.595H1254.22V234.331ZM1254.22 260.227H1262.85V268.858H1254.22V260.227ZM1254.22 277.49H1262.85H1271.48H1288.74H1297.38H1306.01V286.122H1254.22V277.49H1254.22ZM1254.22 294.754H1306.01V303.385H1254.22V294.754ZM1254.22 312.018H1306.01V320.649H1254.22V312.018Z" fill="#042304"/>
<path d="M1409.59 221.341C1412.01 225.528 1414.91 229.395 1418.22 232.864C1423.44 238.329 1429.65 242.791 1436.58 246.003C1441.63 248.342 1447.06 249.991 1452.75 250.863V255.222V259.581V341.85C1453.6 342.782 1454.46 343.688 1455.24 344.68C1457.11 342.445 1459.2 340.46 1461.38 338.605V260.237V255.921V251.606V208.439H1452.75H1449.51C1439.22 208.439 1435.49 199.496 1435.49 193.489V173.912C1435.49 171.53 1437.42 169.596 1439.8 169.596C1442.18 169.596 1444.12 171.53 1444.12 173.912V193.489C1444.14 194.948 1444.6 199.808 1449.51 199.808H1452.75H1461.38V173.912C1461.38 173.316 1461.5 172.747 1461.72 172.229C1462.37 170.683 1463.9 169.596 1465.7 169.596C1468.08 169.596 1470.01 171.529 1470.01 173.911V225.702H1478.64H1480.17C1482.09 225.702 1483.49 225.158 1484.56 223.993C1487.32 220.98 1487.46 214.645 1487.29 212.658L1487.27 191.174C1487.27 188.792 1489.21 186.858 1491.59 186.858C1493.97 186.858 1495.9 188.793 1495.9 191.174V212.287C1495.99 213.091 1496.69 223.534 1490.91 229.836C1488.2 232.78 1484.48 234.333 1480.17 234.333H1478.64H1470.01V251.044V255.403V259.762V332.666C1472.76 331.156 1475.64 329.852 1478.64 328.85V258.157V253.703V249.257C1503.93 242.007 1522.46 218.762 1522.46 191.14C1522.46 157.726 1495.38 130.639 1461.96 130.639C1428.55 130.639 1401.47 157.725 1401.47 191.14C1401.47 191.459 1401.51 191.761 1401.51 192.08C1401.68 202.731 1404.6 212.701 1409.59 221.341Z" fill="#042304"/>
<path d="M1236.96 381.072H1247.89C1247.45 369.773 1243.33 359.837 1236.96 352.069C1234.4 348.953 1231.57 346.13 1228.32 343.826C1221.11 338.698 1212.42 335.677 1202.97 335.677C1184.39 335.677 1168.45 344.775 1161.54 360.83C1156.52 348.374 1146.2 338.655 1133.37 334.425C1130.61 333.509 1127.71 332.915 1124.74 332.543C1122.89 332.31 1121.01 332.111 1119.09 332.111C1109.22 332.111 1098.45 335.52 1090.22 342.15C1088.57 343.479 1087.04 344.955 1085.62 346.543C1080.13 352.696 1076.54 360.751 1076.54 370.686C1076.54 373.499 1076.89 372.437 1077.37 381.07H1124.74H1133.37H1228.32L1236.96 381.072Z" fill="#042304"/>
<path d="M1496.45 335.686C1490.11 335.686 1484.12 336.826 1478.64 338.853C1475.57 339.993 1472.69 341.443 1470.01 343.178C1466.79 345.276 1463.88 347.752 1461.38 350.671C1458.83 353.658 1456.65 357.033 1455.02 360.83C1454.37 359.233 1453.56 357.722 1452.75 356.221C1445.01 341.901 1429.99 332.113 1412.57 332.113C1408.52 332.113 1404.67 332.812 1400.96 333.831C1397.95 334.65 1395.06 335.73 1392.33 337.128C1389.46 338.586 1386.7 340.227 1384.19 342.221C1384.04 342.005 1383.85 341.807 1383.69 341.591C1381.23 338.233 1378.32 335.248 1375.06 332.665C1367.28 326.485 1357.5 322.721 1346.78 322.721C1338.18 322.721 1330.15 325.389 1323.27 329.851C1309.93 338.5 1300.97 354.003 1300.97 370.696C1300.97 373.51 1301.31 372.449 1301.79 381.081H1323.27H1456.11H1470.01H1475.28H1541.37C1540.37 355.176 1520.72 335.686 1496.45 335.686Z" fill="#042304"/>
<path d="M1013.11 352.189V69.7916L896.795 0V352.196H875.474V190.548C875.474 173.411 861.59 159.527 844.453 159.527H770.783V335.379H763.026V97.7157C757.762 88.0528 747.66 81.4273 735.883 81.4273H668.034C650.905 81.4273 637.014 95.3186 637.014 112.448V352.204H606V381.922H1040.26V352.204H1013.11V352.189ZM962.715 78.1889H997.615V113.088H962.715V78.1889ZM962.715 139.583H997.615V174.483H962.715V139.583ZM962.715 202.265H997.615V237.165H962.715V202.265ZM962.715 263.66H997.615V298.559H962.715V263.66ZM912.309 78.1889H947.208V113.088H912.309V78.1889ZM912.309 139.583H947.208V174.483H912.309V139.583ZM912.309 202.265H947.208V237.165H912.309V202.265ZM912.309 263.66H947.208V298.559H912.309V263.66ZM709.388 116.23H740.409V147.251H709.388V116.23ZM709.388 171.81H740.409V202.831H709.388V171.81ZM709.388 228.112H740.409V259.133H709.388V228.112ZM709.388 283.685H740.409V314.706H709.388V283.685ZM657.694 116.23H688.715V147.251H657.694V116.23ZM657.694 171.81H688.715V202.831H657.694V171.81ZM657.694 228.112H688.715V259.133H657.694V228.112ZM657.694 283.685H688.715V314.706H657.694V283.685Z" fill="#042304"/>
<defs>
<clipPath id="clip0_41_5">
<rect width="489" height="489" fill="white" transform="translate(-262)"/>
</clipPath>
</defs>
</svg>
