<svg width="1440" height="376" viewBox="0 0 1440 376" fill="none" xmlns="http://www.w3.org/2000/svg">
<path d="M320.124 101.682V383.539H399.027V101.682H320.124ZM384.619 310.459H334.942C332.549 310.459 330.622 308.525 330.622 306.139C330.622 303.753 332.549 301.819 334.942 301.819H384.619C387.013 301.819 388.94 303.753 388.94 306.139C388.947 308.532 387.013 310.459 384.619 310.459ZM384.619 284.545H334.942C332.549 284.545 330.622 282.611 330.622 280.225C330.622 277.832 332.549 275.898 334.942 275.898H384.619C387.013 275.898 388.94 277.832 388.94 280.225C388.947 282.618 387.013 284.545 384.619 284.545ZM384.619 258.639H334.942C332.549 258.639 330.622 256.698 330.622 254.305C330.622 251.925 332.549 249.991 334.942 249.991H384.619C387.013 249.991 388.94 251.925 388.94 254.305C388.947 256.691 387.013 258.639 384.619 258.639ZM384.619 232.704H334.942C332.549 232.704 330.622 230.784 330.622 228.391C330.622 226.012 332.549 224.071 334.942 224.071H384.619C387.013 224.071 388.94 226.012 388.94 228.391C388.947 230.784 387.013 232.704 384.619 232.704ZM384.619 206.797H334.942C332.549 206.797 330.622 204.863 330.622 202.477C330.622 200.084 332.549 198.15 334.942 198.15H384.619C387.013 198.15 388.94 200.084 388.94 202.477C388.947 204.863 387.013 206.797 384.619 206.797ZM384.619 180.877H334.942C332.549 180.877 330.622 178.943 330.622 176.557C330.622 174.177 332.549 172.236 334.942 172.236H384.619C387.013 172.236 388.94 174.17 388.94 176.557C388.947 178.943 387.013 180.877 384.619 180.877ZM384.619 154.963H334.942C332.549 154.963 330.622 153.029 330.622 150.643C330.622 148.257 332.549 146.323 334.942 146.323H384.619C387.013 146.323 388.94 148.257 388.94 150.643C388.94 153.029 387.013 154.963 384.619 154.963ZM384.619 129.042H334.942C332.549 129.042 330.622 127.108 330.622 124.722C330.622 122.329 332.549 120.402 334.942 120.402H384.619C387.013 120.402 388.94 122.336 388.94 124.722C388.947 127.115 387.013 129.042 384.619 129.042Z" fill="#042304"/>
<path d="M527.468 51.3013V383.553H542.084V310.278H562.808V383.532H571.024V310.278H591.748V383.532H606.371V51.3013H527.468ZM559.357 265.108H542.084C539.691 265.108 537.757 263.181 537.757 260.781C537.757 258.402 539.691 256.468 542.084 256.468H559.357C561.751 256.468 563.671 258.402 563.671 260.781C563.671 263.181 561.751 265.108 559.357 265.108ZM559.357 239.188H542.084C539.691 239.188 537.757 237.254 537.757 234.874C537.757 232.481 539.691 230.54 542.084 230.54H559.357C561.751 230.54 563.671 232.481 563.671 234.874C563.671 237.268 561.751 239.188 559.357 239.188ZM559.357 213.274H542.084C539.691 213.274 537.757 211.34 537.757 208.947C537.757 206.561 539.691 204.627 542.084 204.627H559.357C561.751 204.627 563.671 206.561 563.671 208.947C563.671 211.347 561.751 213.274 559.357 213.274ZM559.357 187.353H542.084C539.691 187.353 537.757 185.419 537.757 183.033C537.757 180.647 539.691 178.713 542.084 178.713H559.357C561.751 178.713 563.671 180.647 563.671 183.033C563.671 185.419 561.751 187.353 559.357 187.353ZM559.357 161.44H542.084C539.691 161.44 537.757 159.506 537.757 157.12C537.757 154.726 539.691 152.799 542.084 152.799H559.357C561.751 152.799 563.671 154.733 563.671 157.12C563.671 159.506 561.751 161.44 559.357 161.44ZM559.357 135.519H542.084C539.691 135.519 537.757 133.585 537.757 131.199C537.757 128.813 539.691 126.879 542.084 126.879H559.357C561.751 126.879 563.671 128.813 563.671 131.199C563.671 133.592 561.751 135.519 559.357 135.519ZM559.357 109.605H542.084C539.691 109.605 537.757 107.671 537.757 105.285C537.757 102.892 539.691 100.965 542.084 100.965H559.357C561.751 100.965 563.671 102.899 563.671 105.285C563.671 107.671 561.751 109.605 559.357 109.605ZM559.357 83.6847H542.084C539.691 83.6847 537.757 81.7508 537.757 79.3716C537.757 76.9785 539.691 75.0515 542.084 75.0515H559.357C561.751 75.0515 563.671 76.9854 563.671 79.3716C563.671 81.7577 561.751 83.6847 559.357 83.6847ZM591.748 265.108H574.474C572.074 265.108 570.147 263.181 570.147 260.781C570.147 258.402 572.074 256.468 574.474 256.468H591.748C594.127 256.468 596.068 258.402 596.068 260.781C596.068 263.181 594.127 265.108 591.748 265.108ZM591.748 239.188H574.474C572.074 239.188 570.147 237.254 570.147 234.874C570.147 232.481 572.074 230.54 574.474 230.54H591.748C594.127 230.54 596.068 232.481 596.068 234.874C596.068 237.268 594.127 239.188 591.748 239.188ZM591.748 213.274H574.474C572.074 213.274 570.147 211.34 570.147 208.947C570.147 206.561 572.074 204.627 574.474 204.627H591.748C594.127 204.627 596.068 206.561 596.068 208.947C596.068 211.347 594.127 213.274 591.748 213.274ZM591.748 187.353H574.474C572.074 187.353 570.147 185.419 570.147 183.033C570.147 180.647 572.074 178.713 574.474 178.713H591.748C594.127 178.713 596.068 180.647 596.068 183.033C596.068 185.419 594.127 187.353 591.748 187.353ZM591.748 161.44H574.474C572.074 161.44 570.147 159.506 570.147 157.12C570.147 154.726 572.074 152.799 574.474 152.799H591.748C594.127 152.799 596.068 154.733 596.068 157.12C596.068 159.506 594.127 161.44 591.748 161.44ZM591.748 135.519H574.474C572.074 135.519 570.147 133.585 570.147 131.199C570.147 128.813 572.074 126.879 574.474 126.879H591.748C594.127 126.879 596.068 128.813 596.068 131.199C596.068 133.592 594.127 135.519 591.748 135.519ZM591.748 109.605H574.474C572.074 109.605 570.147 107.671 570.147 105.285C570.147 102.892 572.074 100.965 574.474 100.965H591.748C594.127 100.965 596.068 102.899 596.068 105.285C596.068 107.671 594.127 109.605 591.748 109.605ZM591.748 83.6847H574.474C572.074 83.6847 570.147 81.7508 570.147 79.3716C570.147 76.9785 572.074 75.0515 574.474 75.0515H591.748C594.127 75.0515 596.068 76.9854 596.068 79.3716C596.068 81.7577 594.127 83.6847 591.748 83.6847Z" fill="#042304"/>
<path d="M481.804 156.939C481.804 150.281 471.655 144.883 459.133 144.883C446.597 144.883 436.447 150.281 436.447 156.939V168.995C436.447 168.995 430.401 168.995 422.951 168.995C415.5 168.995 409.462 181.642 409.462 197.253V225.511H508.81C508.81 225.511 508.81 212.857 508.81 197.253C508.81 181.642 502.765 168.995 495.307 168.995H481.825C481.804 168.995 481.804 163.596 481.804 156.939ZM478.57 208.773H439.696C439.696 208.773 439.696 202.769 439.696 195.36C439.696 187.959 448.398 181.948 459.14 181.948C469.867 181.948 478.57 187.945 478.57 195.36V208.773Z" fill="#042304"/>
<path d="M409.462 237.031V383.539H419.173V286.702C419.173 277.171 426.916 269.435 436.447 269.435C445.991 269.435 453.734 277.164 453.734 286.702V383.539H464.524V286.702C464.524 277.171 472.253 269.435 481.797 269.435C491.335 269.435 499.078 277.164 499.078 286.702V383.539H508.796V237.031H409.462Z" fill="#042304"/>
<path d="M265.987 245.303C244.199 245.303 226.536 264.649 226.536 288.518V383.539H305.445V288.518C305.438 264.649 287.775 245.303 265.987 245.303ZM251.253 366.252H237.75V344.115H251.253V366.252ZM251.253 332.428H237.75V310.278H251.253V332.428ZM251.253 298.591H237.75V276.455H251.253V298.591ZM272.735 366.252H259.239V344.115H272.735V366.252ZM272.735 332.428H259.239V310.278H272.735V332.428ZM272.735 298.591H259.239V276.455H272.735V298.591ZM294.21 366.252H280.714V344.115H294.21V366.252ZM294.21 332.428H280.714V310.278H294.21V332.428ZM294.21 298.591H280.714V276.455H294.21V298.591Z" fill="#042304"/>
<g clip-path="url(#clip0_31_73)">
<path d="M0.0666264 -105.787L-118.657 -105.95C-121.444 -105.954 -123.705 -103.695 -123.705 -100.908V-47.9446L5.10115 15.8275V-100.746C5.10115 -103.528 2.84857 -105.784 0.0666264 -105.787ZM-64.3568 -71.5064C-64.3568 -68.7219 -66.6144 -66.4648 -69.3984 -66.4648H-89.5647C-92.3492 -66.4648 -94.6063 -68.7219 -94.6063 -71.5064V-75.5397C-94.6063 -78.3241 -92.3492 -80.5813 -89.5647 -80.5813H-69.3984C-66.6139 -80.5813 -64.3568 -78.3241 -64.3568 -75.5397V-71.5064ZM-23.9969 -71.5064C-23.9969 -68.7219 -26.2545 -66.4648 -29.0384 -66.4648H-49.2048C-51.9892 -66.4648 -54.2464 -68.7219 -54.2464 -71.5064V-75.5397C-54.2464 -78.3241 -51.9892 -80.5813 -49.2048 -80.5813H-29.0384C-26.2545 -80.5813 -23.9969 -78.3241 -23.9969 -75.5397V-71.5064Z" fill="#042304"/>
<path d="M186.848 -105.787L68.125 -105.95C65.3385 -105.954 63.0764 -103.695 63.0764 -100.908V-47.9446L191.883 15.8275V-100.746C191.883 -103.528 189.63 -105.784 186.848 -105.787ZM122.424 -71.5064C122.424 -68.7219 120.167 -66.4648 117.383 -66.4648H97.2165C94.4325 -66.4648 92.1749 -68.7219 92.1749 -71.5064V-75.5397C92.1749 -78.3241 94.4325 -80.5813 97.2165 -80.5813H117.383C120.167 -80.5813 122.424 -78.3241 122.424 -75.5397V-71.5064ZM162.784 -71.5064C162.784 -68.7219 160.527 -66.4648 157.743 -66.4648H137.576C134.792 -66.4648 132.535 -68.7219 132.535 -71.5064V-75.5397C132.535 -78.3241 134.792 -80.5813 137.576 -80.5813H157.743C160.527 -80.5813 162.784 -78.3241 162.784 -75.5397V-71.5064Z" fill="#042304"/>
<path d="M-143.87 -37.2776V359.773H-174.758C-177.543 359.773 -179.8 362.031 -179.8 364.815V378.008C-179.8 380.793 -177.543 383.05 -174.758 383.05H238.652C241.436 383.05 243.693 380.793 243.693 378.008V364.815C243.693 362.031 241.436 359.773 238.652 359.773H207.763V39.3455C207.763 37.4287 206.676 35.6777 204.958 34.8272L50.1901 -41.7958C46.8394 -43.455 42.9115 -41.0169 42.9115 -37.2776V359.773H20.9816V39.3455C20.9816 37.4287 19.8947 35.6777 18.177 34.8272L-136.592 -41.7958C-139.942 -43.455 -143.87 -41.0169 -143.87 -37.2776ZM150.727 58.0623C150.727 55.2779 152.984 53.0208 155.768 53.0208H175.935C178.719 53.0208 180.976 55.2779 180.976 58.0623V62.0956C180.976 64.8801 178.719 67.1372 175.935 67.1372H155.768C152.984 67.1372 150.727 64.8801 150.727 62.0956V58.0623ZM150.727 106.462C150.727 103.677 152.984 101.42 155.768 101.42H175.935C178.719 101.42 180.976 103.677 180.976 106.462V110.495C180.976 113.279 178.719 115.536 175.935 115.536H155.768C152.984 115.536 150.727 113.279 150.727 110.495V106.462ZM150.727 154.861C150.727 152.076 152.984 149.819 155.768 149.819H175.935C178.719 149.819 180.976 152.076 180.976 154.861V158.894C180.976 161.678 178.719 163.936 175.935 163.936H155.768C152.984 163.936 150.727 161.678 150.727 158.894V154.861ZM150.727 203.26C150.727 200.476 152.984 198.218 155.768 198.218H175.935C178.719 198.218 180.976 200.476 180.976 203.26V207.293C180.976 210.077 178.719 212.335 175.935 212.335H155.768C152.984 212.335 150.727 210.077 150.727 207.293V203.26ZM150.727 251.659C150.727 248.875 152.984 246.618 155.768 246.618H175.935C178.719 246.618 180.976 248.875 180.976 251.659V255.692C180.976 258.476 178.719 260.734 175.935 260.734H155.768C152.984 260.734 150.727 258.476 150.727 255.692V251.659ZM150.727 300.058C150.727 297.274 152.984 295.017 155.768 295.017H175.935C178.719 295.017 180.976 297.274 180.976 300.058V304.092C180.976 306.876 178.719 309.133 175.935 309.133H155.768C152.984 309.133 150.727 306.876 150.727 304.092V300.058ZM110.213 58.0623C110.213 55.2779 112.47 53.0208 115.255 53.0208H135.421C138.205 53.0208 140.463 55.2779 140.463 58.0623V62.0956C140.463 64.8801 138.205 67.1372 135.421 67.1372H115.255C112.47 67.1372 110.213 64.8801 110.213 62.0956V58.0623ZM110.213 106.462C110.213 103.677 112.47 101.42 115.255 101.42H135.421C138.205 101.42 140.463 103.677 140.463 106.462V110.495C140.463 113.279 138.205 115.536 135.421 115.536H115.255C112.47 115.536 110.213 113.279 110.213 110.495V106.462ZM110.213 154.861C110.213 152.076 112.47 149.819 115.255 149.819H135.421C138.205 149.819 140.463 152.076 140.463 154.861V158.894C140.463 161.678 138.205 163.936 135.421 163.936H115.255C112.47 163.936 110.213 161.678 110.213 158.894V154.861ZM110.213 203.26C110.213 200.476 112.47 198.218 115.255 198.218H135.421C138.205 198.218 140.463 200.476 140.463 203.26V207.293C140.463 210.077 138.205 212.335 135.421 212.335H115.255C112.47 212.335 110.213 210.077 110.213 207.293V203.26ZM110.213 251.659C110.213 248.875 112.47 246.618 115.255 246.618H135.421C138.205 246.618 140.463 248.875 140.463 251.659V255.692C140.463 258.476 138.205 260.734 135.421 260.734H115.255C112.47 260.734 110.213 258.476 110.213 255.692V251.659ZM110.213 300.058C110.213 297.274 112.47 295.017 115.255 295.017H135.421C138.205 295.017 140.463 297.274 140.463 300.058V304.092C140.463 306.876 138.205 309.133 135.421 309.133H115.255C112.47 309.133 110.213 306.876 110.213 304.092V300.058ZM101.658 337.732C101.658 334.947 103.915 332.69 106.699 332.69H143.976C146.761 332.69 149.018 334.947 149.018 337.732V359.773H101.658V337.732ZM69.698 58.0623C69.698 55.2779 71.9556 53.0208 74.7396 53.0208H94.9059C97.6904 53.0208 99.9475 55.2779 99.9475 58.0623V62.0956C99.9475 64.8801 97.6904 67.1372 94.9059 67.1372H74.7396C71.9556 67.1372 69.698 64.8801 69.698 62.0956V58.0623ZM69.698 106.462C69.698 103.677 71.9556 101.42 74.7396 101.42H94.9059C97.6904 101.42 99.9475 103.677 99.9475 106.462V110.495C99.9475 113.279 97.6904 115.536 94.9059 115.536H74.7396C71.9556 115.536 69.698 113.279 69.698 110.495V106.462ZM69.698 154.861C69.698 152.076 71.9556 149.819 74.7396 149.819H94.9059C97.6904 149.819 99.9475 152.076 99.9475 154.861V158.894C99.9475 161.678 97.6904 163.936 94.9059 163.936H74.7396C71.9556 163.936 69.698 161.678 69.698 158.894V154.861ZM69.698 203.26C69.698 200.476 71.9556 198.218 74.7396 198.218H94.9059C97.6904 198.218 99.9475 200.476 99.9475 203.26V207.293C99.9475 210.077 97.6904 212.335 94.9059 212.335H74.7396C71.9556 212.335 69.698 210.077 69.698 207.293V203.26ZM69.698 251.659C69.698 248.875 71.9556 246.618 74.7396 246.618H94.9059C97.6904 246.618 99.9475 248.875 99.9475 251.659V255.692C99.9475 258.476 97.6904 260.734 94.9059 260.734H74.7396C71.9556 260.734 69.698 258.476 69.698 255.692V251.659ZM69.698 300.058C69.698 297.274 71.9556 295.017 74.7396 295.017H94.9059C97.6904 295.017 99.9475 297.274 99.9475 300.058V304.092C99.9475 306.876 97.6904 309.133 94.9059 309.133H74.7396C71.9556 309.133 69.698 306.876 69.698 304.092V300.058ZM-36.0543 58.0623C-36.0543 55.2779 -33.7972 53.0208 -31.0127 53.0208H-10.8464C-8.06243 53.0208 -5.8048 55.2779 -5.8048 58.0623V62.0956C-5.8048 64.8801 -8.06243 67.1372 -10.8464 67.1372H-31.0127C-33.7972 67.1372 -36.0543 64.8801 -36.0543 62.0956V58.0623ZM-36.0543 106.462C-36.0543 103.677 -33.7972 101.42 -31.0127 101.42H-10.8464C-8.06243 101.42 -5.8048 103.677 -5.8048 106.462V110.495C-5.8048 113.279 -8.06243 115.536 -10.8464 115.536H-31.0127C-33.7972 115.536 -36.0543 113.279 -36.0543 110.495V106.462ZM-36.0543 154.861C-36.0543 152.076 -33.7972 149.819 -31.0127 149.819H-10.8464C-8.06243 149.819 -5.8048 152.076 -5.8048 154.861V158.894C-5.8048 161.678 -8.06243 163.936 -10.8464 163.936H-31.0127C-33.7972 163.936 -36.0543 161.678 -36.0543 158.894V154.861ZM-36.0543 203.26C-36.0543 200.476 -33.7972 198.218 -31.0127 198.218H-10.8464C-8.06243 198.218 -5.8048 200.476 -5.8048 203.26V207.293C-5.8048 210.077 -8.06243 212.335 -10.8464 212.335H-31.0127C-33.7972 212.335 -36.0543 210.077 -36.0543 207.293V203.26ZM-36.0543 251.659C-36.0543 248.875 -33.7972 246.618 -31.0127 246.618H-10.8464C-8.06243 246.618 -5.8048 248.875 -5.8048 251.659V255.692C-5.8048 258.476 -8.06243 260.734 -10.8464 260.734H-31.0127C-33.7972 260.734 -36.0543 258.476 -36.0543 255.692V251.659ZM-36.0543 300.058C-36.0543 297.274 -33.7972 295.017 -31.0127 295.017H-10.8464C-8.06243 295.017 -5.8048 297.274 -5.8048 300.058V304.092C-5.8048 306.876 -8.06243 309.133 -10.8464 309.133H-31.0127C-33.7972 309.133 -36.0543 306.876 -36.0543 304.092V300.058ZM-76.569 58.0623C-76.569 55.2779 -74.3119 53.0208 -71.5274 53.0208H-51.3611C-48.5766 53.0208 -46.3195 55.2779 -46.3195 58.0623V62.0956C-46.3195 64.8801 -48.5766 67.1372 -51.3611 67.1372H-71.5274C-74.3119 67.1372 -76.569 64.8801 -76.569 62.0956V58.0623ZM-76.569 106.462C-76.569 103.677 -74.3119 101.42 -71.5274 101.42H-51.3611C-48.5766 101.42 -46.3195 103.677 -46.3195 106.462V110.495C-46.3195 113.279 -48.5766 115.536 -51.3611 115.536H-71.5274C-74.3119 115.536 -76.569 113.279 -76.569 110.495V106.462ZM-76.569 154.861C-76.569 152.076 -74.3119 149.819 -71.5274 149.819H-51.3611C-48.5766 149.819 -46.3195 152.076 -46.3195 154.861V158.894C-46.3195 161.678 -48.5766 163.936 -51.3611 163.936H-71.5274C-74.3119 163.936 -76.569 161.678 -76.569 158.894V154.861ZM-76.569 203.26C-76.569 200.476 -74.3119 198.218 -71.5274 198.218H-51.3611C-48.5766 198.218 -46.3195 200.476 -46.3195 203.26V207.293C-46.3195 210.077 -48.5766 212.335 -51.3611 212.335H-71.5274C-74.3119 212.335 -76.569 210.077 -76.569 207.293V203.26ZM-76.569 251.659C-76.569 248.875 -74.3119 246.618 -71.5274 246.618H-51.3611C-48.5766 246.618 -46.3195 248.875 -46.3195 251.659V255.692C-46.3195 258.476 -48.5766 260.734 -51.3611 260.734H-71.5274C-74.3119 260.734 -76.569 258.476 -76.569 255.692V251.659ZM-76.569 300.058C-76.569 297.274 -74.3119 295.017 -71.5274 295.017H-51.3611C-48.5766 295.017 -46.3195 297.274 -46.3195 300.058V304.092C-46.3195 306.876 -48.5766 309.133 -51.3611 309.133H-71.5274C-74.3119 309.133 -76.569 306.876 -76.569 304.092V300.058ZM-85.1246 337.732C-85.1246 334.947 -82.8675 332.69 -80.083 332.69H-42.806C-40.0215 332.69 -37.7644 334.947 -37.7644 337.732V359.773H-85.1246V337.732ZM-117.083 58.0623C-117.083 55.2779 -114.826 53.0208 -112.042 53.0208H-91.8753C-89.0908 53.0208 -86.8337 55.2779 -86.8337 58.0623V62.0956C-86.8337 64.8801 -89.0908 67.1372 -91.8753 67.1372H-112.042C-114.826 67.1372 -117.083 64.8801 -117.083 62.0956V58.0623ZM-117.083 106.462C-117.083 103.677 -114.826 101.42 -112.042 101.42H-91.8753C-89.0908 101.42 -86.8337 103.677 -86.8337 106.462V110.495C-86.8337 113.279 -89.0908 115.536 -91.8753 115.536H-112.042C-114.826 115.536 -117.083 113.279 -117.083 110.495V106.462ZM-117.083 154.861C-117.083 152.076 -114.826 149.819 -112.042 149.819H-91.8753C-89.0908 149.819 -86.8337 152.076 -86.8337 154.861V158.894C-86.8337 161.678 -89.0908 163.936 -91.8753 163.936H-112.042C-114.826 163.936 -117.083 161.678 -117.083 158.894V154.861ZM-117.083 203.26C-117.083 200.476 -114.826 198.218 -112.042 198.218H-91.8753C-89.0908 198.218 -86.8337 200.476 -86.8337 203.26V207.293C-86.8337 210.077 -89.0908 212.335 -91.8753 212.335H-112.042C-114.826 212.335 -117.083 210.077 -117.083 207.293V203.26ZM-117.083 251.659C-117.083 248.875 -114.826 246.618 -112.042 246.618H-91.8753C-89.0908 246.618 -86.8337 248.875 -86.8337 251.659V255.692C-86.8337 258.476 -89.0908 260.734 -91.8753 260.734H-112.042C-114.826 260.734 -117.083 258.476 -117.083 255.692V251.659ZM-117.083 300.058C-117.083 297.274 -114.826 295.017 -112.042 295.017H-91.8753C-89.0908 295.017 -86.8337 297.274 -86.8337 300.058V304.092C-86.8337 306.876 -89.0908 309.133 -91.8753 309.133H-112.042C-114.826 309.133 -117.083 306.876 -117.083 304.092V300.058Z" fill="#042304"/>
</g>
<path d="M1403.61 262.227H1400.96H1392.33V288.433V329.65C1395.12 328.51 1398.03 327.715 1400.96 327.076V287.069C1416.57 283.115 1429.12 271.55 1434.43 256.52C1428.34 253.863 1422.7 250.367 1417.67 246.154C1416.39 253.785 1412.58 262.227 1403.61 262.227Z" fill="#042304"/>
<path d="M1375.06 286.491V324.246C1378.14 326.145 1381.03 328.346 1383.69 330.824V288.26V253.595H1377.28C1376.44 253.595 1375.77 253.466 1375.06 253.362C1371.49 252.854 1369.37 251.256 1368.24 249.823C1365.96 246.897 1366.2 243.419 1366.43 241.968V227.7C1366.43 225.317 1368.36 223.384 1370.75 223.384C1373.13 223.384 1375.06 225.318 1375.06 227.7L1374.93 243.633C1374.87 243.97 1374.92 244.963 1375.05 244.963H1375.06C1375.17 244.963 1375.78 244.963 1377.29 244.963H1383.69V227.7C1383.69 227.104 1383.82 226.534 1384.03 226.016C1384.69 224.471 1386.21 223.383 1388.01 223.383C1390.39 223.383 1392.33 225.317 1392.33 227.699V253.594H1400.96H1403.61C1408.51 253.594 1409.59 242.736 1409.59 240.043V238.135C1406.13 234.113 1403.13 229.702 1400.66 224.964C1399.78 223.272 1398.93 221.555 1398.19 219.785C1394.75 211.576 1392.84 202.574 1392.84 193.139C1392.84 192.958 1392.86 192.776 1392.86 192.596C1391.63 192.501 1390.39 192.406 1389.14 192.406C1362.58 192.406 1341.05 213.941 1341.05 240.501C1341.04 262.167 1355.37 280.475 1375.06 286.491Z" fill="#042304"/>
<path d="M1161.76 346.689C1171.81 334.673 1186.8 327.976 1202.97 327.976C1212.15 327.976 1220.77 330.392 1228.32 334.605V3.27454H1133.38V327.561C1144.61 330.763 1154.57 337.539 1161.76 346.689ZM1159.27 279.491H1167.9V296.754H1159.27V279.491ZM1159.27 253.595H1167.9V270.858H1159.27V253.595ZM1159.27 227.7H1167.9V244.964H1159.27V227.7ZM1159.27 201.804H1167.9V219.068H1159.27V201.804ZM1159.27 175.91H1167.9V193.173H1159.27V175.91ZM1159.27 150.014H1167.9V167.277H1159.27V150.014ZM1159.27 124.119H1167.9V141.383H1159.27V124.119ZM1159.27 98.2243H1167.9V115.488H1159.27V98.2243ZM1159.27 72.3286H1167.9V89.5921H1159.27V72.3286ZM1202.43 89.5921H1193.8V72.3286H1202.43V89.5921ZM1202.43 115.487H1193.8V98.2234H1202.43V115.487ZM1202.43 141.383H1193.8V124.119H1202.43V141.383ZM1202.43 167.278H1193.8V150.015H1202.43V167.278ZM1202.43 193.173H1193.8V175.91H1202.43V193.173ZM1202.43 219.068H1193.8V201.804H1202.43V219.068ZM1202.43 244.964H1193.8V227.7H1202.43V244.964ZM1202.43 270.858H1193.8V253.595H1202.43V270.858ZM1202.43 296.754H1193.8V279.491H1202.43V296.754ZM1176.53 279.491H1185.16V296.754H1176.53V279.491ZM1176.53 253.595H1185.16V270.858H1176.53V253.595ZM1176.53 227.7H1185.16V244.964H1176.53V227.7ZM1176.53 201.804H1185.16V219.068H1176.53V201.804ZM1176.53 175.91H1185.16V193.173H1176.53V175.91ZM1176.53 150.014H1185.16V167.277H1176.53V150.014ZM1176.53 124.119H1185.16V141.383H1176.53V124.119ZM1176.53 98.2243H1185.16V115.488H1176.53V98.2243ZM1185.16 89.5921H1176.53V72.3286H1185.16V89.5921ZM1202.43 37.8016V63.6973H1193.8V37.8016H1202.43ZM1185.16 37.8016V63.6973H1176.53V37.8016H1185.16ZM1159.27 37.8016H1167.9V63.6973H1159.27V37.8016Z" fill="#042304"/>
<path d="M1067.91 370.53C1067.91 357.012 1073.32 346.481 1081.58 338.99C1084.2 336.616 1087.1 334.553 1090.21 332.809C1091.17 332.273 1092.14 331.765 1093.13 331.281H1090.21V314.018H1107.48V326.612C1111.3 325.887 1115.2 325.481 1119.09 325.481C1121 325.481 1122.88 325.618 1124.74 325.826V193.173H1021.16V383.072H1068.96L1068.88 382.459C1068.21 378.825 1067.91 373.568 1067.91 370.53ZM1038.43 288.122H1055.69V305.385H1038.43V288.122ZM1038.43 262.227H1055.69V279.491H1038.43V262.227ZM1038.43 236.331H1055.69V253.595H1038.43V236.331ZM1081.58 253.595H1064.32V236.331H1081.58V253.595ZM1081.58 279.491H1064.32V262.227H1081.58V279.491ZM1064.32 288.122H1081.58V305.385H1064.32V288.122ZM1107.48 305.385H1090.22V288.122H1107.48V305.385ZM1107.48 279.491H1090.22V262.227H1107.48V279.491ZM1107.48 253.595H1090.22V236.331H1107.48V253.595ZM1107.48 227.7H1090.22V210.437H1107.48V227.7ZM1081.58 227.7H1064.32V210.437H1081.58V227.7ZM1038.43 210.437H1055.69V227.7H1038.43V210.437ZM1038.43 314.018H1055.69V331.281H1038.43V314.018ZM1064.32 314.018H1081.58V331.281H1064.32V314.018Z" fill="#042304"/>
<path d="M1256.51 380.551L1256.6 383.072H1293.39L1293.3 382.459C1292.64 378.824 1292.34 373.567 1292.34 370.529C1292.34 348.933 1305.01 330.289 1323.27 321.492V141.382H1236.95V340.595C1248.36 350.271 1255.85 364.608 1256.51 380.551ZM1306.01 270.858H1297.38V262.227H1306.01V270.858ZM1271.48 262.227H1288.75V270.858H1271.48V262.227ZM1271.48 236.331H1288.75V253.595H1271.48V236.331ZM1271.48 210.436H1288.75V227.7H1271.48V210.436ZM1271.48 184.541H1288.75V201.804H1271.48V184.541ZM1306.01 201.804H1297.38V184.541H1306.01V201.804ZM1306.01 227.7H1297.38V210.436H1306.01V227.7ZM1306.01 253.595H1297.38V236.331H1306.01V253.595ZM1306.01 175.909H1297.38V158.646H1306.01V175.909ZM1288.75 175.909H1271.48V158.646H1288.75V175.909ZM1254.22 158.646H1262.85V175.909H1254.22V158.646ZM1254.22 184.541H1262.85V201.804H1254.22V184.541ZM1254.22 210.436H1262.85V227.7H1254.22V210.436ZM1254.22 236.331H1262.85V253.595H1254.22V236.331ZM1254.22 262.227H1262.85V270.858H1254.22V262.227ZM1254.22 279.49H1262.85H1271.48H1288.74H1297.38H1306.01V288.122H1254.22V279.49H1254.22ZM1254.22 296.754H1306.01V305.385H1254.22V296.754ZM1254.22 314.017H1306.01V322.649H1254.22V314.017Z" fill="#042304"/>
<path d="M1409.59 223.341C1412.01 227.528 1414.91 231.395 1418.22 234.864C1423.44 240.329 1429.65 244.791 1436.58 248.003C1441.63 250.342 1447.06 251.991 1452.75 252.863V257.222V261.581V343.85C1453.6 344.782 1454.46 345.688 1455.24 346.681C1457.11 344.445 1459.2 342.46 1461.38 340.605V262.237V257.921V253.606V210.439H1452.75H1449.51C1439.22 210.439 1435.49 201.496 1435.49 195.489V175.912C1435.49 173.53 1437.42 171.596 1439.8 171.596C1442.18 171.596 1444.12 173.53 1444.12 175.912V195.489C1444.14 196.948 1444.6 201.808 1449.51 201.808H1452.75H1461.38V175.912C1461.38 175.316 1461.5 174.747 1461.72 174.229C1462.37 172.683 1463.9 171.596 1465.7 171.596C1468.08 171.596 1470.01 173.529 1470.01 175.911V227.702H1478.64H1480.17C1482.09 227.702 1483.49 227.158 1484.56 225.993C1487.32 222.98 1487.46 216.645 1487.29 214.658L1487.27 193.174C1487.27 190.792 1489.21 188.858 1491.59 188.858C1493.97 188.858 1495.9 190.793 1495.9 193.174V214.287C1495.99 215.091 1496.69 225.534 1490.91 231.836C1488.2 234.78 1484.48 236.333 1480.17 236.333H1478.64H1470.01V253.044V257.403V261.762V334.666C1472.76 333.156 1475.64 331.852 1478.64 330.85V260.157V255.703V251.257C1503.93 244.007 1522.46 220.762 1522.46 193.14C1522.46 159.726 1495.38 132.639 1461.96 132.639C1428.55 132.639 1401.47 159.725 1401.47 193.14C1401.47 193.459 1401.51 193.761 1401.51 194.08C1401.68 204.731 1404.6 214.701 1409.59 223.341Z" fill="#042304"/>
<path d="M1236.96 383.072H1247.89C1247.45 371.773 1243.33 361.837 1236.96 354.069C1234.4 350.953 1231.57 348.13 1228.32 345.826C1221.11 340.698 1212.42 337.677 1202.97 337.677C1184.39 337.677 1168.45 346.775 1161.54 362.83C1156.52 350.374 1146.2 340.655 1133.37 336.425C1130.61 335.509 1127.71 334.915 1124.74 334.543C1122.89 334.31 1121.01 334.111 1119.09 334.111C1109.22 334.111 1098.45 337.52 1090.22 344.15C1088.57 345.479 1087.04 346.955 1085.62 348.543C1080.13 354.696 1076.54 362.751 1076.54 372.686C1076.54 375.499 1076.89 374.437 1077.37 383.07H1124.74H1133.37H1228.32L1236.96 383.072Z" fill="#042304"/>
<path d="M1496.45 337.686C1490.11 337.686 1484.12 338.826 1478.64 340.853C1475.57 341.993 1472.69 343.443 1470.01 345.178C1466.79 347.276 1463.88 349.752 1461.38 352.671C1458.83 355.658 1456.65 359.033 1455.02 362.83C1454.37 361.233 1453.56 359.722 1452.75 358.221C1445.01 343.901 1429.99 334.113 1412.57 334.113C1408.52 334.113 1404.67 334.812 1400.96 335.831C1397.95 336.65 1395.06 337.73 1392.33 339.128C1389.46 340.586 1386.7 342.227 1384.19 344.221C1384.04 344.005 1383.85 343.807 1383.69 343.591C1381.23 340.233 1378.32 337.248 1375.06 334.665C1367.28 328.485 1357.5 324.721 1346.78 324.721C1338.18 324.721 1330.15 327.389 1323.27 331.851C1309.93 340.5 1300.97 356.003 1300.97 372.696C1300.97 375.51 1301.31 374.449 1301.79 383.081H1323.27H1456.11H1470.01H1475.28H1541.37C1540.37 357.176 1520.72 337.686 1496.45 337.686Z" fill="#042304"/>
<path d="M1013.5 376.202V93.805L897.179 24.0134V376.21H875.858V214.561C875.858 197.424 861.974 183.54 844.837 183.54H771.167V359.393H763.409V121.729C758.146 112.066 748.044 105.441 736.267 105.441H668.418C651.289 105.441 637.397 119.332 637.397 136.462V376.217H606.384V405.935H1040.64V376.217H1013.5V376.202ZM963.099 102.202H997.999V137.102H963.099V102.202ZM963.099 163.597H997.999V198.496H963.099V163.597ZM963.099 226.279H997.999V261.178H963.099V226.279ZM963.099 287.673H997.999V322.573H963.099V287.673ZM912.693 102.202H947.592V137.102H912.693V102.202ZM912.693 163.597H947.592V198.496H912.693V163.597ZM912.693 226.279H947.592V261.178H912.693V226.279ZM912.693 287.673H947.592V322.573H912.693V287.673ZM709.772 140.243H740.793V171.264H709.772V140.243ZM709.772 195.824H740.793V226.844H709.772V195.824ZM709.772 252.126H740.793V283.147H709.772V252.126ZM709.772 307.699H740.793V338.72H709.772V307.699ZM658.078 140.243H689.099V171.264H658.078V140.243ZM658.078 195.824H689.099V226.844H658.078V195.824ZM658.078 252.126H689.099V283.147H658.078V252.126ZM658.078 307.699H689.099V338.72H658.078V307.699Z" fill="#042304"/>
<defs>
<clipPath id="clip0_31_73">
<rect width="489" height="489" fill="white" transform="translate(-245)"/>
</clipPath>
</defs>
</svg>
