<svg width="35" height="35" viewBox="0 0 35 35" fill="none" xmlns="http://www.w3.org/2000/svg">
<path d="M12.6364 6.23866C14.8008 2.35732 15.8822 0.416656 17.5 0.416656C19.1178 0.416656 20.1992 2.35732 22.3636 6.23866L22.924 7.24316C23.539 8.34674 23.8465 8.89853 24.3248 9.26241C24.8031 9.62628 25.401 9.76124 26.5969 10.0312L27.6834 10.2772C31.8859 11.2287 33.9854 11.7036 34.486 13.3112C34.9848 14.917 33.5532 16.5929 30.6883 19.9429L29.9469 20.809C29.1337 21.7606 28.7255 22.2372 28.5427 22.8249C28.3599 23.4142 28.4214 24.0497 28.5444 25.319L28.6571 26.4756C29.0893 30.9463 29.3063 33.1808 27.9977 34.1733C26.6891 35.1659 24.7211 34.2604 20.7885 32.4496L19.7687 31.9815C18.6514 31.4656 18.0928 31.2094 17.5 31.2094C16.9072 31.2094 16.3486 31.4656 15.2313 31.9815L14.2132 32.4496C10.2789 34.2604 8.31087 35.1659 7.00399 34.175C5.6937 33.1808 5.91066 30.9463 6.34287 26.4756L6.45562 25.3207C6.57862 24.0497 6.64012 23.4142 6.45562 22.8266C6.27454 22.2372 5.86625 21.7606 5.05308 20.8107L4.31166 19.9429C1.44679 16.5946 0.0152029 14.9187 0.514036 13.3112C1.01287 11.7036 3.11583 11.227 7.31833 10.2772L8.40483 10.0312C9.59895 9.76124 10.1952 9.62628 10.6752 9.26241C11.1552 8.89853 11.461 8.34674 12.076 7.24316L12.6364 6.23866Z" fill="#042304"/>
</svg>
